<svg width="374" height="93" viewBox="0 0 374 93" fill="none" xmlns="http://www.w3.org/2000/svg">
<g clip-path="url(#clip0_482_173)">
<path d="M116.188 19.9531C114.685 19.9531 113.294 19.7088 112.016 19.2202C110.757 18.7129 109.658 18.0082 108.718 17.1061C107.797 16.1853 107.074 15.1142 106.548 13.8927C106.022 12.6712 105.759 11.3276 105.759 9.8618C105.759 8.39602 106.022 7.05239 106.548 5.83091C107.074 4.60943 107.807 3.54767 108.746 2.64566C109.686 1.72485 110.785 1.02014 112.044 0.531549C113.322 0.0241649 114.713 -0.229527 116.216 -0.229527C117.738 -0.229527 119.138 0.0335614 120.416 0.559739C121.713 1.06712 122.812 1.8282 123.714 2.84297L121.882 4.61882C121.13 3.82956 120.285 3.247 119.345 2.87116C118.406 2.47653 117.4 2.27921 116.329 2.27921C115.22 2.27921 114.187 2.46713 113.228 2.84297C112.289 3.21881 111.471 3.74499 110.776 4.4215C110.081 5.09802 109.536 5.90608 109.141 6.84568C108.765 7.76649 108.577 8.77186 108.577 9.8618C108.577 10.9517 108.765 11.9665 109.141 12.9061C109.536 13.8269 110.081 14.6256 110.776 15.3021C111.471 15.9786 112.289 16.5048 113.228 16.8806C114.187 17.2565 115.22 17.4444 116.329 17.4444C117.4 17.4444 118.406 17.2565 119.345 16.8806C120.285 16.486 121.13 15.8847 121.882 15.0766L123.714 16.8524C122.812 17.8672 121.713 18.6377 120.416 19.1639C119.138 19.69 117.729 19.9531 116.188 19.9531ZM133.106 19.8968C131.603 19.8968 130.269 19.5679 129.104 18.9102C127.939 18.2525 127.018 17.3504 126.341 16.2041C125.665 15.039 125.327 13.7236 125.327 12.2578C125.327 10.7732 125.665 9.45777 126.341 8.31146C127.018 7.16514 127.939 6.27252 129.104 5.63359C130.269 4.97587 131.603 4.64701 133.106 4.64701C134.591 4.64701 135.916 4.97587 137.081 5.63359C138.265 6.27252 139.186 7.16514 139.843 8.31146C140.52 9.43898 140.858 10.7544 140.858 12.2578C140.858 13.7424 140.52 15.0578 139.843 16.2041C139.186 17.3504 138.265 18.2525 137.081 18.9102C135.916 19.5679 134.591 19.8968 133.106 19.8968ZM133.106 17.529C134.065 17.529 134.92 17.3129 135.672 16.8806C136.442 16.4484 137.043 15.8377 137.476 15.0484C137.908 14.2404 138.124 13.3101 138.124 12.2578C138.124 11.1866 137.908 10.2658 137.476 9.49536C137.043 8.70609 136.442 8.09535 135.672 7.66313C134.92 7.23092 134.065 7.01481 133.106 7.01481C132.148 7.01481 131.293 7.23092 130.541 7.66313C129.79 8.09535 129.188 8.70609 128.737 9.49536C128.286 10.2658 128.061 11.1866 128.061 12.2578C128.061 13.3101 128.286 14.2404 128.737 15.0484C129.188 15.8377 129.79 16.4484 130.541 16.8806C131.293 17.3129 132.148 17.529 133.106 17.529ZM144.601 19.7276V-1.18792H147.307V19.7276H144.601ZM158.872 19.8968C157.369 19.8968 156.035 19.5679 154.869 18.9102C153.704 18.2525 152.784 17.3504 152.107 16.2041C151.43 15.039 151.092 13.7236 151.092 12.2578C151.092 10.7732 151.43 9.45777 152.107 8.31146C152.784 7.16514 153.704 6.27252 154.869 5.63359C156.035 4.97587 157.369 4.64701 158.872 4.64701C160.357 4.64701 161.682 4.97587 162.847 5.63359C164.031 6.27252 164.951 7.16514 165.609 8.31146C166.286 9.43898 166.624 10.7544 166.624 12.2578C166.624 13.7424 166.286 15.0578 165.609 16.2041C164.951 17.3504 164.031 18.2525 162.847 18.9102C161.682 19.5679 160.357 19.8968 158.872 19.8968ZM158.872 17.529C159.831 17.529 160.686 17.3129 161.437 16.8806C162.208 16.4484 162.809 15.8377 163.241 15.0484C163.674 14.2404 163.89 13.3101 163.89 12.2578C163.89 11.1866 163.674 10.2658 163.241 9.49536C162.809 8.70609 162.208 8.09535 161.437 7.66313C160.686 7.23092 159.831 7.01481 158.872 7.01481C157.914 7.01481 157.059 7.23092 156.307 7.66313C155.555 8.09535 154.954 8.70609 154.503 9.49536C154.052 10.2658 153.826 11.1866 153.826 12.2578C153.826 13.3101 154.052 14.2404 154.503 15.0484C154.954 15.8377 155.555 16.4484 156.307 16.8806C157.059 17.3129 157.914 17.529 158.872 17.529ZM170.366 19.7276V4.78795H172.96V8.84703L172.706 7.83226C173.119 6.7987 173.815 6.00943 174.792 5.46446C175.769 4.91949 176.972 4.64701 178.4 4.64701V7.2685C178.287 7.24971 178.174 7.24031 178.062 7.24031C177.968 7.24031 177.874 7.24031 177.78 7.24031C176.333 7.24031 175.186 7.67253 174.341 8.53696C173.495 9.4014 173.072 10.6511 173.072 12.286V19.7276H170.366ZM189.892 19.7276V-0.00402394H197.588C199.317 -0.00402394 200.792 0.268461 202.013 0.813431C203.235 1.3584 204.174 2.14767 204.832 3.18123C205.49 4.21479 205.819 5.44567 205.819 6.87387C205.819 8.30206 205.49 9.53294 204.832 10.5665C204.174 11.5813 203.235 12.3611 202.013 12.9061C200.792 13.4511 199.317 13.7236 197.588 13.7236H191.443L192.711 12.4269V19.7276H189.892ZM203.084 19.7276L198.067 12.5679H201.083L206.157 19.7276H203.084ZM192.711 12.7088L191.443 11.3276H197.503C199.307 11.3276 200.67 10.9423 201.591 10.1719C202.53 9.38261 203 8.28327 203 6.87387C203 5.46446 202.53 4.37452 201.591 3.60405C200.67 2.83358 199.307 2.44834 197.503 2.44834H191.443L192.711 1.03893V12.7088ZM219.114 19.7276V16.5706L218.974 15.9786V10.5947C218.974 9.44838 218.635 8.56515 217.959 7.94501C217.301 7.30608 216.305 6.98662 214.971 6.98662C214.088 6.98662 213.223 7.13696 212.378 7.43763C211.532 7.71951 210.818 8.10475 210.235 8.59334L209.108 6.5638C209.878 5.94366 210.799 5.47386 211.87 5.15439C212.96 4.81614 214.097 4.64701 215.281 4.64701C217.329 4.64701 218.908 5.145 220.016 6.14098C221.125 7.13696 221.68 8.65911 221.68 10.7074V19.7276H219.114ZM214.21 19.8968C213.101 19.8968 212.124 19.7088 211.278 19.333C210.451 18.9572 209.812 18.4404 209.361 17.7827C208.91 17.1061 208.685 16.3451 208.685 15.4994C208.685 14.6914 208.873 13.9585 209.249 13.3007C209.643 12.643 210.273 12.1168 211.137 11.7222C212.02 11.3276 213.204 11.1303 214.689 11.1303H219.425V13.0752H214.802C213.449 13.0752 212.537 13.3007 212.067 13.7518C211.598 14.2028 211.363 14.7477 211.363 15.3867C211.363 16.1196 211.654 16.7115 212.237 17.1625C212.819 17.5947 213.627 17.8108 214.661 17.8108C215.676 17.8108 216.559 17.5853 217.31 17.1343C218.081 16.6833 218.635 16.0256 218.974 15.1612L219.509 17.0216C219.152 17.9048 218.523 18.6095 217.621 19.1357C216.718 19.6431 215.582 19.8968 214.21 19.8968ZM245.376 4.64701C246.579 4.64701 247.641 4.88191 248.561 5.35171C249.482 5.82151 250.196 6.53561 250.704 7.49401C251.23 8.4524 251.493 9.66449 251.493 11.1303V19.7276H248.787V11.4403C248.787 9.99335 248.449 8.90341 247.772 8.17052C247.096 7.43763 246.147 7.07118 244.925 7.07118C244.023 7.07118 243.234 7.2591 242.557 7.63495C241.881 8.01079 241.355 8.56515 240.979 9.29804C240.622 10.0309 240.443 10.9423 240.443 12.0323V19.7276H237.737V11.4403C237.737 9.99335 237.399 8.90341 236.722 8.17052C236.065 7.43763 235.116 7.07118 233.875 7.07118C232.992 7.07118 232.212 7.2591 231.536 7.63495C230.859 8.01079 230.333 8.56515 229.957 9.29804C229.581 10.0309 229.393 10.9423 229.393 12.0323V19.7276H226.687V4.78795H229.281V8.76247L228.858 7.7477C229.328 6.77051 230.051 6.00943 231.028 5.46446C232.006 4.91949 233.142 4.64701 234.439 4.64701C235.867 4.64701 237.098 5.00406 238.132 5.71816C239.165 6.41346 239.842 7.47521 240.161 8.90341L239.062 8.4524C239.513 7.30608 240.302 6.38527 241.43 5.68997C242.557 4.99466 243.873 4.64701 245.376 4.64701ZM264.393 19.8968C263.153 19.8968 262.016 19.6149 260.982 19.0511C259.967 18.4686 259.15 17.6135 258.53 16.486C257.928 15.3585 257.628 13.9491 257.628 12.2578C257.628 10.5665 257.919 9.1571 258.502 8.02958C259.103 6.90206 259.911 6.05641 260.926 5.49265C261.959 4.92889 263.115 4.64701 264.393 4.64701C265.859 4.64701 267.155 4.96647 268.283 5.6054C269.41 6.24433 270.303 7.13696 270.961 8.28327C271.618 9.41079 271.947 10.7356 271.947 12.2578C271.947 13.7799 271.618 15.1142 270.961 16.2605C270.303 17.4068 269.41 18.2994 268.283 18.9384C267.155 19.5773 265.859 19.8968 264.393 19.8968ZM256.472 25.1961V4.78795H259.065V8.81884L258.896 12.286L259.178 15.7531V25.1961H256.472ZM264.167 17.529C265.126 17.529 265.981 17.3129 266.732 16.8806C267.503 16.4484 268.104 15.8377 268.537 15.0484C268.988 14.2404 269.213 13.3101 269.213 12.2578C269.213 11.1866 268.988 10.2658 268.537 9.49536C268.104 8.70609 267.503 8.09535 266.732 7.66313C265.981 7.23092 265.126 7.01481 264.167 7.01481C263.228 7.01481 262.373 7.23092 261.602 7.66313C260.851 8.09535 260.249 8.70609 259.798 9.49536C259.366 10.2658 259.15 11.1866 259.15 12.2578C259.15 13.3101 259.366 14.2404 259.798 15.0484C260.249 15.8377 260.851 16.4484 261.602 16.8806C262.373 17.3129 263.228 17.529 264.167 17.529Z" fill="#151515"/>
<path d="M111.88 41.8479L106.197 40.9008V36.3838H117.052C118.704 36.3838 120.841 36.2866 123.463 36.0924C124.095 36.0438 124.848 35.9952 125.722 35.9467C126.596 35.8981 127.616 35.8738 128.782 35.8738C136.116 35.8738 141.24 36.918 144.154 39.0065C147.117 41.0465 148.598 44.1064 148.598 48.1862C148.598 51.7804 147.505 54.7917 145.32 57.2202C143.183 59.6001 140.366 61.0572 136.869 61.5915C141.677 61.5429 145.441 62.6357 148.161 64.8699C150.93 67.1041 152.314 70.2126 152.314 74.1953C152.314 79.2465 150.541 83.3021 146.995 86.362C143.45 89.4219 137.524 90.9518 129.219 90.9518C127.033 90.9518 125.018 90.879 123.172 90.7333C122.686 90.7333 121.861 90.6847 120.695 90.5876C119.529 90.539 118.339 90.5147 117.125 90.5147H106.124V86.1434L111.88 85.4149V41.8479ZM122.443 59.9887C122.978 60.0372 124.071 60.0615 125.722 60.0615H129.146C132.109 60.0615 134.319 59.1387 135.776 57.293C137.233 55.4474 137.961 52.8489 137.961 49.4976C137.961 46.292 137.209 43.9607 135.703 42.5036C134.197 41.0465 131.696 40.3179 128.199 40.3179C127.276 40.3179 125.358 40.4151 122.443 40.6093V59.9887ZM122.443 85.7063C123.561 86.1434 125.698 86.362 128.855 86.362C132.983 86.362 135.97 85.3906 137.816 83.4478C139.661 81.505 140.584 78.688 140.584 74.9967C140.584 71.4511 139.734 68.9255 138.034 67.4198C136.383 65.8656 133.736 65.0885 130.093 65.0885C126.013 65.0885 123.463 65.137 122.443 65.2342V85.7063ZM190.787 91.2433C189.184 91.2433 188.018 90.9033 187.29 90.2233C186.561 89.5433 186.197 88.5234 186.197 87.1634V85.1963C184.885 86.7991 183.04 88.2319 180.66 89.4947C178.28 90.709 175.9 91.3161 173.52 91.3161C168.857 91.3161 165.53 90.1262 163.539 87.7462C161.548 85.3178 160.552 81.335 160.552 75.7981V55.2531L156.909 54.2331V50.0804L169.295 49.1333H169.367L170.825 50.1533V75.7981C170.825 79.3437 171.262 81.8207 172.136 83.2293C173.01 84.6378 174.637 85.342 177.017 85.342C179.883 85.342 182.554 84.2249 185.031 81.9907V55.2531L180.15 54.1603V50.0804L193.337 49.1333H193.482L195.231 50.1533V85.9977H199.311L199.238 90.1504C199.044 90.199 198.145 90.3933 196.542 90.7333C194.939 91.0733 193.021 91.2433 190.787 91.2433ZM213.129 43.3778C211.381 43.3778 209.996 42.8678 208.976 41.8479C207.956 40.8279 207.446 39.5165 207.446 37.9137C207.446 36.0681 208.029 34.5381 209.195 33.3239C210.361 32.1096 211.915 31.5025 213.858 31.5025C215.8 31.5025 217.282 32.0368 218.302 33.1053C219.322 34.1253 219.832 35.4124 219.832 36.9666C219.832 38.9094 219.249 40.4636 218.083 41.6293C216.918 42.795 215.291 43.3778 213.202 43.3778H213.129ZM209.268 56.9288L204.095 55.5445V50.6633L217.428 49.0605H217.573L219.613 50.5176V85.5606L224.494 86.1434V90.5147H204.168V86.1434L209.268 85.4877V56.9288ZM233.942 37.258L228.551 36.3109V32.3768L242.029 30.774H242.175L244.142 32.1582V85.5606L249.46 86.1434V90.5147H228.842V86.1434L233.942 85.4877V37.258ZM269.702 91.3161C266.691 91.3161 263.995 90.6118 261.616 89.2033C259.236 87.7462 257.341 85.512 255.933 82.5007C254.524 79.4894 253.82 75.7252 253.82 71.2083C253.82 67.1284 254.646 63.4128 256.297 60.0615C257.997 56.6616 260.474 53.966 263.728 51.9747C266.983 49.9833 270.892 48.9876 275.458 48.9876C277.304 48.9876 279.052 49.1819 280.703 49.5705V37.258L273.564 36.2381V32.2311L288.572 30.774H288.79L290.83 32.3039V86.0706H294.764V90.2233C291.267 90.9518 288.377 91.3161 286.095 91.3161C284.54 91.3161 283.423 91.049 282.743 90.5147C282.112 90.029 281.796 89.0333 281.796 87.5277V85.4877C280.533 87.1877 278.809 88.5962 276.624 89.7133C274.438 90.7818 272.131 91.3161 269.702 91.3161ZM273.491 85.2692C275.094 85.2692 276.502 84.9535 277.716 84.3221C278.979 83.6421 279.975 82.8407 280.703 81.9179V55.3988C280.363 54.9131 279.635 54.5003 278.518 54.1603C277.449 53.8203 276.284 53.6503 275.021 53.6503C271.912 53.6503 269.411 55.0103 267.517 57.7302C265.671 60.4015 264.748 64.6999 264.748 70.6254C264.748 75.5795 265.55 79.2708 267.153 81.6993C268.755 84.0792 270.868 85.2692 273.491 85.2692ZM318.44 91.3161C312.029 91.3161 307.245 89.4462 304.088 85.7063C300.98 81.9179 299.425 76.7695 299.425 70.2611C299.425 65.8899 300.227 62.1014 301.83 58.8958C303.481 55.6902 305.788 53.2375 308.751 51.5375C311.713 49.8376 315.138 48.9876 319.023 48.9876C323.88 48.9876 327.62 50.2747 330.243 52.8489C332.866 55.3745 334.226 58.993 334.323 63.7042C334.323 66.9098 334.128 69.2898 333.74 70.844H310.062C310.256 75.2638 311.301 78.7123 313.195 81.1893C315.089 83.6178 317.785 84.8321 321.282 84.8321C323.176 84.8321 325.119 84.5164 327.11 83.8849C329.15 83.2535 330.753 82.5007 331.918 81.6265L333.74 85.6335C332.428 87.042 330.291 88.3534 327.329 89.5676C324.414 90.7333 321.452 91.3161 318.44 91.3161ZM324.123 66.4727C324.22 65.1128 324.269 64.0685 324.269 63.34C324.269 56.8802 322.107 53.6503 317.785 53.6503C315.405 53.6503 313.559 54.5974 312.248 56.4916C310.936 58.3859 310.208 61.7129 310.062 66.4727H324.123ZM340.137 86.2163L344.945 85.6335V56.9288L340.283 55.6174V50.5904L351.575 49.0605H351.794L353.615 50.5176V52.1204L353.396 58.0216H353.615C353.955 57.0502 354.756 55.8602 356.019 54.4517C357.282 52.9946 358.86 51.7318 360.755 50.6633C362.697 49.5462 364.786 48.9876 367.02 48.9876C368.089 48.9876 369.012 49.1333 369.789 49.4247V60.3529C368.332 59.333 366.559 58.823 364.47 58.823C360.925 58.823 357.84 59.7701 355.218 61.6643V85.5606L363.669 86.2163V90.5147H340.137V86.2163Z" fill="#151515"/>
<g clip-path="url(#clip1_482_173)">
<path d="M92 0L92 20.75L-9.07011e-07 20.75L0 -4.02145e-06L92 0Z" fill="#151515"/>
<path d="M92 23.75L92 44.5L-9.07011e-07 44.5L0 23.75L92 23.75Z" fill="#4F4F4F"/>
<path d="M92 47.5L92 68.25L-9.07011e-07 68.25L0 47.5L92 47.5Z" fill="#8A8A8A"/>
<path d="M92 71.25L92 92L-9.07011e-07 92L0 71.25L92 71.25Z" fill="#C4C4C4"/>
</g>
</g>
<defs>
<clipPath id="clip0_482_173">
<rect width="373.379" height="92.4482" fill="white"/>
</clipPath>
<clipPath id="clip1_482_173">
<rect x="92" width="92" height="92" rx="8" transform="rotate(90 92 0)" fill="white"/>
</clipPath>
</defs>
</svg>
